<?xml version="1.0" encoding="UTF-8" standalone="no"?>
<!DOCTYPE svg PUBLIC "-//W3C//DTD SVG 1.1//EN"
 "http://www.w3.org/Graphics/SVG/1.1/DTD/svg11.dtd">
<!-- Generated by graphviz version 2.42.3 (20191010.1750)
 -->
<!-- Title: %3 Pages: 1 -->
<svg width="225pt" height="208pt"
 viewBox="0.00 0.00 225.29 208.00" xmlns="http://www.w3.org/2000/svg" xmlns:xlink="http://www.w3.org/1999/xlink">
<g id="graph0" class="graph" transform="scale(1 1) rotate(0) translate(4 204)">
<title>%3</title>
<polygon fill="white" stroke="transparent" points="-4,4 -4,-204 221.29,-204 221.29,4 -4,4"/>
<!-- @DEFAULT -->
<g id="node1" class="node">
<title>@DEFAULT</title>
<polygon fill="none" stroke="black" points="156.42,-200 67.72,-200 67.72,-164 156.42,-164 156.42,-200"/>
<text text-anchor="middle" x="112.07" y="-177.8" font-family="Times,serif" font-size="14.00">@DEFAULT</text>
</g>
<!-- @INIT_MD -->
<g id="node2" class="node">
<title>@INIT_MD</title>
<polygon fill="none" stroke="black" points="100.51,-128 15.63,-128 15.63,-92 100.51,-92 100.51,-128"/>
<text text-anchor="middle" x="58.07" y="-105.8" font-family="Times,serif" font-size="14.00">@INIT_MD</text>
</g>
<!-- @DEFAULT&#45;&gt;@INIT_MD -->
<g id="edge1" class="edge">
<title>@DEFAULT&#45;&gt;@INIT_MD</title>
<path fill="none" stroke="black" d="M98.72,-163.7C92.31,-155.39 84.51,-145.28 77.46,-136.14"/>
<polygon fill="black" stroke="black" points="80.14,-133.88 71.27,-128.1 74.6,-138.16 80.14,-133.88"/>
</g>
<!-- @INIT_OPTG -->
<g id="node4" class="node">
<title>@INIT_OPTG</title>
<polygon fill="none" stroke="black" points="217.51,-128 118.63,-128 118.63,-92 217.51,-92 217.51,-128"/>
<text text-anchor="middle" x="168.07" y="-105.8" font-family="Times,serif" font-size="14.00">@INIT_OPTG</text>
</g>
<!-- @DEFAULT&#45;&gt;@INIT_OPTG -->
<g id="edge2" class="edge">
<title>@DEFAULT&#45;&gt;@INIT_OPTG</title>
<path fill="none" stroke="black" d="M125.91,-163.7C132.56,-155.39 140.65,-145.28 147.96,-136.14"/>
<polygon fill="black" stroke="black" points="150.87,-138.1 154.39,-128.1 145.41,-133.73 150.87,-138.1"/>
</g>
<!-- @INIT_MD_ -->
<g id="node3" class="node">
<title>@INIT_MD_</title>
<polygon fill="none" stroke="black" points="110.21,-56 -0.07,-56 -0.07,0 110.21,0 110.21,-56"/>
<text text-anchor="middle" x="55.07" y="-37.8" font-family="Times,serif" font-size="14.00">@PRE&#45;FORCES</text>
<text text-anchor="middle" x="55.07" y="-23.8" font-family="Times,serif" font-size="14.00">@FORCES</text>
<text text-anchor="middle" x="55.07" y="-9.8" font-family="Times,serif" font-size="14.00">@COORDS</text>
</g>
<!-- @INIT_MD&#45;&gt;@INIT_MD_ -->
<g id="edge3" class="edge">
<title>@INIT_MD&#45;&gt;@INIT_MD_</title>
<path fill="none" stroke="black" d="M57.42,-91.64C57.14,-84.18 56.8,-75.14 56.47,-66.29"/>
<polygon fill="black" stroke="black" points="59.96,-65.94 56.09,-56.08 52.96,-66.2 59.96,-65.94"/>
</g>
<!-- @INIT_OPTG_ -->
<g id="node5" class="node">
<title>@INIT_OPTG_</title>
<polygon fill="none" stroke="black" points="211.76,-49 128.38,-49 128.38,-7 211.76,-7 211.76,-49"/>
<text text-anchor="middle" x="170.07" y="-30.8" font-family="Times,serif" font-size="14.00">@FORCES</text>
<text text-anchor="middle" x="170.07" y="-16.8" font-family="Times,serif" font-size="14.00">@COORDS</text>
</g>
<!-- @INIT_OPTG&#45;&gt;@INIT_OPTG_ -->
<g id="edge4" class="edge">
<title>@INIT_OPTG&#45;&gt;@INIT_OPTG_</title>
<path fill="none" stroke="black" d="M168.5,-91.64C168.74,-82.17 169.04,-70.17 169.31,-59.22"/>
<polygon fill="black" stroke="black" points="172.82,-59.23 169.57,-49.15 165.82,-59.06 172.82,-59.23"/>
</g>
</g>
</svg>
