<?xml version="1.0" encoding="UTF-8" standalone="no"?>
<!DOCTYPE svg PUBLIC "-//W3C//DTD SVG 1.1//EN"
 "http://www.w3.org/Graphics/SVG/1.1/DTD/svg11.dtd">
<!-- Generated by graphviz version 2.43.0 (0)
 -->
<!-- Title: %3 Pages: 1 -->
<svg width="228pt" height="196pt"
 viewBox="0.00 0.00 227.50 196.00" xmlns="http://www.w3.org/2000/svg" xmlns:xlink="http://www.w3.org/1999/xlink">
<g id="graph0" class="graph" transform="scale(1 1) rotate(0) translate(4 192)">
<title>%3</title>
<polygon fill="white" stroke="transparent" points="-4,4 -4,-192 223.5,-192 223.5,4 -4,4"/>
<!-- @DEFAULT -->
<g id="node1" class="node">
<title>@DEFAULT</title>
<polygon fill="none" stroke="black" points="154.5,-188 56.5,-188 56.5,-152 154.5,-152 154.5,-188"/>
<text text-anchor="middle" x="105.5" y="-166.3" font-family="Times,serif" font-size="14.00">@DEFAULT</text>
</g>
<!-- @INIT_MD -->
<g id="node2" class="node">
<title>@INIT_MD</title>
<polygon fill="none" stroke="black" points="93,-116 0,-116 0,-80 93,-80 93,-116"/>
<text text-anchor="middle" x="46.5" y="-94.3" font-family="Times,serif" font-size="14.00">@INIT_MD</text>
</g>
<!-- @DEFAULT&#45;&gt;@INIT_MD -->
<g id="edge1" class="edge">
<title>@DEFAULT&#45;&gt;@INIT_MD</title>
<path fill="none" stroke="black" d="M90.92,-151.7C83.84,-143.3 75.22,-133.07 67.45,-123.86"/>
<polygon fill="black" stroke="black" points="70.04,-121.49 60.92,-116.1 64.69,-126.01 70.04,-121.49"/>
</g>
<!-- @INIT_OPTG -->
<g id="node4" class="node">
<title>@INIT_OPTG</title>
<polygon fill="none" stroke="black" points="219.5,-116 111.5,-116 111.5,-80 219.5,-80 219.5,-116"/>
<text text-anchor="middle" x="165.5" y="-94.3" font-family="Times,serif" font-size="14.00">@INIT_OPTG</text>
</g>
<!-- @DEFAULT&#45;&gt;@INIT_OPTG -->
<g id="edge2" class="edge">
<title>@DEFAULT&#45;&gt;@INIT_OPTG</title>
<path fill="none" stroke="black" d="M120.33,-151.7C127.52,-143.3 136.3,-133.07 144.19,-123.86"/>
<polygon fill="black" stroke="black" points="146.99,-125.97 150.84,-116.1 141.67,-121.42 146.99,-125.97"/>
</g>
<!-- @INIT_MD_ -->
<g id="node3" class="node">
<title>@INIT_MD_</title>
<polygon fill="none" stroke="black" points="93,-44 0,-44 0,0 93,0 93,-44"/>
<text text-anchor="middle" x="46.5" y="-25.8" font-family="Times,serif" font-size="14.00">@FORCES</text>
<text text-anchor="middle" x="46.5" y="-10.8" font-family="Times,serif" font-size="14.00">@COORDS</text>
</g>
<!-- @INIT_MD&#45;&gt;@INIT_MD_ -->
<g id="edge3" class="edge">
<title>@INIT_MD&#45;&gt;@INIT_MD_</title>
<path fill="none" stroke="black" d="M46.5,-79.84C46.5,-72.16 46.5,-62.88 46.5,-54.05"/>
<polygon fill="black" stroke="black" points="50,-54.03 46.5,-44.03 43,-54.03 50,-54.03"/>
</g>
<!-- @INIT_OPTG_ -->
<g id="node5" class="node">
<title>@INIT_OPTG_</title>
<polygon fill="none" stroke="black" points="212,-44 119,-44 119,0 212,0 212,-44"/>
<text text-anchor="middle" x="165.5" y="-25.8" font-family="Times,serif" font-size="14.00">@FORCES</text>
<text text-anchor="middle" x="165.5" y="-10.8" font-family="Times,serif" font-size="14.00">@COORDS</text>
</g>
<!-- @INIT_OPTG&#45;&gt;@INIT_OPTG_ -->
<g id="edge4" class="edge">
<title>@INIT_OPTG&#45;&gt;@INIT_OPTG_</title>
<path fill="none" stroke="black" d="M165.5,-79.84C165.5,-72.16 165.5,-62.88 165.5,-54.05"/>
<polygon fill="black" stroke="black" points="169,-54.03 165.5,-44.03 162,-54.03 169,-54.03"/>
</g>
</g>
</svg>
