<?xml version="1.0" encoding="UTF-8" standalone="no"?>
<!DOCTYPE svg PUBLIC "-//W3C//DTD SVG 1.1//EN"
 "http://www.w3.org/Graphics/SVG/1.1/DTD/svg11.dtd">
<!-- Generated by graphviz version 2.42.3 (20191010.1750)
 -->
<!-- Title: %3 Pages: 1 -->
<svg width="207pt" height="205pt"
 viewBox="0.00 0.00 206.50 205.00" xmlns="http://www.w3.org/2000/svg" xmlns:xlink="http://www.w3.org/1999/xlink">
<g id="graph0" class="graph" transform="scale(1 1) rotate(0) translate(4 201)">
<title>%3</title>
<polygon fill="white" stroke="transparent" points="-4,4 -4,-201 202.5,-201 202.5,4 -4,4"/>
<!-- @INIT_OPTG_ -->
<g id="node1" class="node">
<title>@INIT_OPTG_</title>
<polygon fill="none" stroke="black" points="80.5,-45.5 11.5,-45.5 11.5,-7.5 80.5,-7.5 80.5,-45.5"/>
<text text-anchor="middle" x="46" y="-30.3" font-family="Times,serif" font-size="14.00">@FORCES</text>
<text text-anchor="middle" x="46" y="-15.3" font-family="Times,serif" font-size="14.00">@COORDS</text>
</g>
<!-- @INIT_OPTG -->
<g id="node2" class="node">
<title>@INIT_OPTG</title>
<polygon fill="none" stroke="black" points="92,-125 0,-125 0,-89 92,-89 92,-125"/>
<text text-anchor="middle" x="46" y="-103.3" font-family="Times,serif" font-size="14.00">@INIT_OPTG</text>
</g>
<!-- @INIT_OPTG&#45;&gt;@INIT_OPTG_ -->
<g id="edge3" class="edge">
<title>@INIT_OPTG&#45;&gt;@INIT_OPTG_</title>
<path fill="none" stroke="black" d="M46,-88.97C46,-79.26 46,-66.86 46,-55.73"/>
<polygon fill="black" stroke="black" points="49.5,-55.59 46,-45.59 42.5,-55.59 49.5,-55.59"/>
</g>
<!-- @INIT_MD_ -->
<g id="node3" class="node">
<title>@INIT_MD_</title>
<polygon fill="none" stroke="black" points="198.5,-53 99.5,-53 99.5,0 198.5,0 198.5,-53"/>
<text text-anchor="middle" x="149" y="-37.8" font-family="Times,serif" font-size="14.00">@PRE&#45;FORCES</text>
<text text-anchor="middle" x="149" y="-22.8" font-family="Times,serif" font-size="14.00">@FORCES</text>
<text text-anchor="middle" x="149" y="-7.8" font-family="Times,serif" font-size="14.00">@COORDS</text>
</g>
<!-- @INIT_MD -->
<g id="node4" class="node">
<title>@INIT_MD</title>
<polygon fill="none" stroke="black" points="187.5,-125 110.5,-125 110.5,-89 187.5,-89 187.5,-125"/>
<text text-anchor="middle" x="149" y="-103.3" font-family="Times,serif" font-size="14.00">@INIT_MD</text>
</g>
<!-- @INIT_MD&#45;&gt;@INIT_MD_ -->
<g id="edge4" class="edge">
<title>@INIT_MD&#45;&gt;@INIT_MD_</title>
<path fill="none" stroke="black" d="M149,-88.97C149,-81.45 149,-72.31 149,-63.4"/>
<polygon fill="black" stroke="black" points="152.5,-63.16 149,-53.16 145.5,-63.16 152.5,-63.16"/>
</g>
<!-- @DEFAULT -->
<g id="node5" class="node">
<title>@DEFAULT</title>
<polygon fill="none" stroke="black" points="135.5,-197 58.5,-197 58.5,-161 135.5,-161 135.5,-197"/>
<text text-anchor="middle" x="97" y="-175.3" font-family="Times,serif" font-size="14.00">@DEFAULT</text>
</g>
<!-- @DEFAULT&#45;&gt;@INIT_OPTG -->
<g id="edge1" class="edge">
<title>@DEFAULT&#45;&gt;@INIT_OPTG</title>
<path fill="none" stroke="black" d="M84.39,-160.7C78.4,-152.47 71.12,-142.48 64.52,-133.42"/>
<polygon fill="black" stroke="black" points="67.18,-131.13 58.46,-125.1 61.52,-135.25 67.18,-131.13"/>
</g>
<!-- @DEFAULT&#45;&gt;@INIT_MD -->
<g id="edge2" class="edge">
<title>@DEFAULT&#45;&gt;@INIT_MD</title>
<path fill="none" stroke="black" d="M109.85,-160.7C116.03,-152.39 123.54,-142.28 130.32,-133.14"/>
<polygon fill="black" stroke="black" points="133.14,-135.22 136.29,-125.1 127.52,-131.04 133.14,-135.22"/>
</g>
</g>
</svg>
