<?xml version="1.0" encoding="UTF-8" standalone="no"?>
<!DOCTYPE svg PUBLIC "-//W3C//DTD SVG 1.1//EN"
 "http://www.w3.org/Graphics/SVG/1.1/DTD/svg11.dtd">
<!-- Generated by graphviz version 2.43.0 (0)
 -->
<!-- Title: %3 Pages: 1 -->
<svg width="208pt" height="226pt"
 viewBox="0.00 0.00 207.50 226.00" xmlns="http://www.w3.org/2000/svg" xmlns:xlink="http://www.w3.org/1999/xlink">
<g id="graph0" class="graph" transform="scale(1 1) rotate(0) translate(4 222)">
<title>%3</title>
<polygon fill="white" stroke="transparent" points="-4,4 -4,-222 203.5,-222 203.5,4 -4,4"/>
<!-- @DEFAULT -->
<g id="node1" class="node">
<title>@DEFAULT</title>
<polygon fill="none" stroke="black" points="141,-218 54,-218 54,-182 141,-182 141,-218"/>
<text text-anchor="middle" x="97.5" y="-196.3" font-family="Times,serif" font-size="14.00">@DEFAULT</text>
</g>
<!-- @INIT_MD -->
<g id="node2" class="node">
<title>@INIT_MD</title>
<polygon fill="none" stroke="black" points="85.5,-146 1.5,-146 1.5,-110 85.5,-110 85.5,-146"/>
<text text-anchor="middle" x="43.5" y="-124.3" font-family="Times,serif" font-size="14.00">@INIT_MD</text>
</g>
<!-- @DEFAULT&#45;&gt;@INIT_MD -->
<g id="edge1" class="edge">
<title>@DEFAULT&#45;&gt;@INIT_MD</title>
<path fill="none" stroke="black" d="M84.15,-181.7C77.74,-173.39 69.94,-163.28 62.89,-154.14"/>
<polygon fill="black" stroke="black" points="65.57,-151.88 56.69,-146.1 60.03,-156.16 65.57,-151.88"/>
</g>
<!-- @INIT_OPTG -->
<g id="node4" class="node">
<title>@INIT_OPTG</title>
<polygon fill="none" stroke="black" points="199.5,-146 103.5,-146 103.5,-110 199.5,-110 199.5,-146"/>
<text text-anchor="middle" x="151.5" y="-124.3" font-family="Times,serif" font-size="14.00">@INIT_OPTG</text>
</g>
<!-- @DEFAULT&#45;&gt;@INIT_OPTG -->
<g id="edge2" class="edge">
<title>@DEFAULT&#45;&gt;@INIT_OPTG</title>
<path fill="none" stroke="black" d="M110.85,-181.7C117.26,-173.39 125.06,-163.28 132.11,-154.14"/>
<polygon fill="black" stroke="black" points="134.97,-156.16 138.31,-146.1 129.43,-151.88 134.97,-156.16"/>
</g>
<!-- @INIT_MD_ -->
<g id="node3" class="node">
<title>@INIT_MD_</title>
<polygon fill="none" stroke="black" points="87,-74 0,-74 0,0 87,0 87,-74"/>
<text text-anchor="middle" x="43.5" y="-55.8" font-family="Times,serif" font-size="14.00">@FORCES</text>
<text text-anchor="middle" x="43.5" y="-40.8" font-family="Times,serif" font-size="14.00">@COORDS</text>
<text text-anchor="middle" x="43.5" y="-25.8" font-family="Times,serif" font-size="14.00">@ENDSTEP</text>
<text text-anchor="middle" x="43.5" y="-10.8" font-family="Times,serif" font-size="14.00">@DEFAULT</text>
</g>
<!-- @INIT_MD&#45;&gt;@INIT_MD_ -->
<g id="edge3" class="edge">
<title>@INIT_MD&#45;&gt;@INIT_MD_</title>
<path fill="none" stroke="black" d="M43.5,-109.84C43.5,-102.5 43.5,-93.54 43.5,-84.47"/>
<polygon fill="black" stroke="black" points="47,-84.26 43.5,-74.26 40,-84.26 47,-84.26"/>
</g>
<!-- @INIT_OPTG_ -->
<g id="node5" class="node">
<title>@INIT_OPTG_</title>
<polygon fill="none" stroke="black" points="195,-66.5 108,-66.5 108,-7.5 195,-7.5 195,-66.5"/>
<text text-anchor="middle" x="151.5" y="-48.3" font-family="Times,serif" font-size="14.00">@COORDS</text>
<text text-anchor="middle" x="151.5" y="-33.3" font-family="Times,serif" font-size="14.00">@FORCES</text>
<text text-anchor="middle" x="151.5" y="-18.3" font-family="Times,serif" font-size="14.00">@DEFAULT</text>
</g>
<!-- @INIT_OPTG&#45;&gt;@INIT_OPTG_ -->
<g id="edge4" class="edge">
<title>@INIT_OPTG&#45;&gt;@INIT_OPTG_</title>
<path fill="none" stroke="black" d="M151.5,-109.84C151.5,-100.48 151.5,-88.49 151.5,-76.99"/>
<polygon fill="black" stroke="black" points="155,-76.67 151.5,-66.67 148,-76.67 155,-76.67"/>
</g>
</g>
</svg>
