<?xml version="1.0" encoding="UTF-8" standalone="no"?>
<!DOCTYPE svg PUBLIC "-//W3C//DTD SVG 1.1//EN"
 "http://www.w3.org/Graphics/SVG/1.1/DTD/svg11.dtd">
<!-- Generated by graphviz version 2.42.3 (20191010.1750)
 -->
<!-- Title: %3 Pages: 1 -->
<svg width="243pt" height="205pt"
 viewBox="0.00 0.00 243.00 205.00" xmlns="http://www.w3.org/2000/svg" xmlns:xlink="http://www.w3.org/1999/xlink">
<g id="graph0" class="graph" transform="scale(1 1) rotate(0) translate(4 201)">
<title>%3</title>
<polygon fill="white" stroke="transparent" points="-4,4 -4,-201 239,-201 239,4 -4,4"/>
<!-- @DEFAULT -->
<g id="node1" class="node">
<title>@DEFAULT</title>
<polygon fill="none" stroke="black" points="167,-197 74,-197 74,-161 167,-161 167,-197"/>
<text text-anchor="middle" x="120.5" y="-175.3" font-family="Times,serif" font-size="14.00">@DEFAULT</text>
</g>
<!-- @INIT_MD -->
<g id="node2" class="node">
<title>@INIT_MD</title>
<polygon fill="none" stroke="black" points="107.5,-125 17.5,-125 17.5,-89 107.5,-89 107.5,-125"/>
<text text-anchor="middle" x="62.5" y="-103.3" font-family="Times,serif" font-size="14.00">@INIT_MD</text>
</g>
<!-- @DEFAULT&#45;&gt;@INIT_MD -->
<g id="edge1" class="edge">
<title>@DEFAULT&#45;&gt;@INIT_MD</title>
<path fill="none" stroke="black" d="M106.16,-160.7C99.21,-152.3 90.73,-142.07 83.1,-132.86"/>
<polygon fill="black" stroke="black" points="85.75,-130.57 76.67,-125.1 80.36,-135.04 85.75,-130.57"/>
</g>
<!-- @INIT_OPTG -->
<g id="node4" class="node">
<title>@INIT_OPTG</title>
<polygon fill="none" stroke="black" points="235,-125 128,-125 128,-89 235,-89 235,-125"/>
<text text-anchor="middle" x="181.5" y="-103.3" font-family="Times,serif" font-size="14.00">@INIT_OPTG</text>
</g>
<!-- @DEFAULT&#45;&gt;@INIT_OPTG -->
<g id="edge2" class="edge">
<title>@DEFAULT&#45;&gt;@INIT_OPTG</title>
<path fill="none" stroke="black" d="M135.58,-160.7C142.89,-152.3 151.81,-142.07 159.84,-132.86"/>
<polygon fill="black" stroke="black" points="162.66,-134.94 166.59,-125.1 157.39,-130.34 162.66,-134.94"/>
</g>
<!-- @INIT_MD_ -->
<g id="node3" class="node">
<title>@INIT_MD_</title>
<polygon fill="none" stroke="black" points="119,-53 0,-53 0,0 119,0 119,-53"/>
<text text-anchor="middle" x="59.5" y="-37.8" font-family="Times,serif" font-size="14.00">@PRE&#45;FORCES</text>
<text text-anchor="middle" x="59.5" y="-22.8" font-family="Times,serif" font-size="14.00">@FORCES</text>
<text text-anchor="middle" x="59.5" y="-7.8" font-family="Times,serif" font-size="14.00">@COORDS</text>
</g>
<!-- @INIT_MD&#45;&gt;@INIT_MD_ -->
<g id="edge3" class="edge">
<title>@INIT_MD&#45;&gt;@INIT_MD_</title>
<path fill="none" stroke="black" d="M61.85,-88.97C61.56,-81.45 61.21,-72.31 60.87,-63.4"/>
<polygon fill="black" stroke="black" points="64.36,-63.02 60.48,-53.16 57.37,-63.28 64.36,-63.02"/>
</g>
<!-- @INIT_OPTG_ -->
<g id="node5" class="node">
<title>@INIT_OPTG_</title>
<polygon fill="none" stroke="black" points="230,-45.5 137,-45.5 137,-7.5 230,-7.5 230,-45.5"/>
<text text-anchor="middle" x="183.5" y="-30.3" font-family="Times,serif" font-size="14.00">@FORCES</text>
<text text-anchor="middle" x="183.5" y="-15.3" font-family="Times,serif" font-size="14.00">@COORDS</text>
</g>
<!-- @INIT_OPTG&#45;&gt;@INIT_OPTG_ -->
<g id="edge4" class="edge">
<title>@INIT_OPTG&#45;&gt;@INIT_OPTG_</title>
<path fill="none" stroke="black" d="M181.93,-88.97C182.18,-79.26 182.5,-66.86 182.78,-55.73"/>
<polygon fill="black" stroke="black" points="186.28,-55.68 183.04,-45.59 179.29,-55.5 186.28,-55.68"/>
</g>
</g>
</svg>
