<?xml version="1.0" encoding="UTF-8" standalone="no"?>
<!DOCTYPE svg PUBLIC "-//W3C//DTD SVG 1.1//EN"
 "http://www.w3.org/Graphics/SVG/1.1/DTD/svg11.dtd">
<!-- Generated by graphviz version 2.42.3 (20191010.1750)
 -->
<!-- Title: %3 Pages: 1 -->
<svg width="239pt" height="211pt"
 viewBox="0.00 0.00 239.00 211.00" xmlns="http://www.w3.org/2000/svg" xmlns:xlink="http://www.w3.org/1999/xlink">
<g id="graph0" class="graph" transform="scale(1 1) rotate(0) translate(4 207)">
<title>%3</title>
<polygon fill="white" stroke="transparent" points="-4,4 -4,-207 235,-207 235,4 -4,4"/>
<!-- @DEFAULT -->
<g id="node1" class="node">
<title>@DEFAULT</title>
<polygon fill="none" stroke="black" points="164,-203 73,-203 73,-167 164,-167 164,-203"/>
<text text-anchor="middle" x="118.5" y="-181.3" font-family="Times,serif" font-size="14.00">@DEFAULT</text>
</g>
<!-- @INIT_MD -->
<g id="node2" class="node">
<title>@INIT_MD</title>
<polygon fill="none" stroke="black" points="105.5,-131 17.5,-131 17.5,-95 105.5,-95 105.5,-131"/>
<text text-anchor="middle" x="61.5" y="-109.3" font-family="Times,serif" font-size="14.00">@INIT_MD</text>
</g>
<!-- @DEFAULT&#45;&gt;@INIT_MD -->
<g id="edge1" class="edge">
<title>@DEFAULT&#45;&gt;@INIT_MD</title>
<path fill="none" stroke="black" d="M104.41,-166.7C97.58,-158.3 89.24,-148.07 81.74,-138.86"/>
<polygon fill="black" stroke="black" points="84.46,-136.65 75.43,-131.1 79.03,-141.07 84.46,-136.65"/>
</g>
<!-- @INIT_OPTG -->
<g id="node4" class="node">
<title>@INIT_OPTG</title>
<polygon fill="none" stroke="black" points="231,-131 126,-131 126,-95 231,-95 231,-131"/>
<text text-anchor="middle" x="178.5" y="-109.3" font-family="Times,serif" font-size="14.00">@INIT_OPTG</text>
</g>
<!-- @DEFAULT&#45;&gt;@INIT_OPTG -->
<g id="edge2" class="edge">
<title>@DEFAULT&#45;&gt;@INIT_OPTG</title>
<path fill="none" stroke="black" d="M133.33,-166.7C140.52,-158.3 149.3,-148.07 157.19,-138.86"/>
<polygon fill="black" stroke="black" points="159.99,-140.97 163.84,-131.1 154.67,-136.42 159.99,-140.97"/>
</g>
<!-- @INIT_MD_ -->
<g id="node3" class="node">
<title>@INIT_MD_</title>
<polygon fill="none" stroke="black" points="117,-59 0,-59 0,0 117,0 117,-59"/>
<text text-anchor="middle" x="58.5" y="-40.8" font-family="Times,serif" font-size="14.00">@PRE&#45;FORCES</text>
<text text-anchor="middle" x="58.5" y="-25.8" font-family="Times,serif" font-size="14.00">@FORCES</text>
<text text-anchor="middle" x="58.5" y="-10.8" font-family="Times,serif" font-size="14.00">@COORDS</text>
</g>
<!-- @INIT_MD&#45;&gt;@INIT_MD_ -->
<g id="edge3" class="edge">
<title>@INIT_MD&#45;&gt;@INIT_MD_</title>
<path fill="none" stroke="black" d="M60.86,-94.72C60.59,-87.33 60.26,-78.38 59.94,-69.54"/>
<polygon fill="black" stroke="black" points="63.43,-69.17 59.56,-59.31 56.43,-69.43 63.43,-69.17"/>
</g>
<!-- @INIT_OPTG_ -->
<g id="node5" class="node">
<title>@INIT_OPTG_</title>
<polygon fill="none" stroke="black" points="226,-51.5 135,-51.5 135,-7.5 226,-7.5 226,-51.5"/>
<text text-anchor="middle" x="180.5" y="-33.3" font-family="Times,serif" font-size="14.00">@FORCES</text>
<text text-anchor="middle" x="180.5" y="-18.3" font-family="Times,serif" font-size="14.00">@COORDS</text>
</g>
<!-- @INIT_OPTG&#45;&gt;@INIT_OPTG_ -->
<g id="edge4" class="edge">
<title>@INIT_OPTG&#45;&gt;@INIT_OPTG_</title>
<path fill="none" stroke="black" d="M178.92,-94.72C179.16,-85.16 179.46,-72.98 179.73,-61.81"/>
<polygon fill="black" stroke="black" points="183.24,-61.6 179.98,-51.52 176.24,-61.43 183.24,-61.6"/>
</g>
</g>
</svg>
