<?xml version="1.0" encoding="UTF-8" standalone="no"?>
<!DOCTYPE svg PUBLIC "-//W3C//DTD SVG 1.1//EN"
 "http://www.w3.org/Graphics/SVG/1.1/DTD/svg11.dtd">
<!-- Generated by graphviz version 2.42.3 (20191010.1750)
 -->
<!-- Title: %3 Pages: 1 -->
<svg width="242pt" height="205pt"
 viewBox="0.00 0.00 242.00 205.00" xmlns="http://www.w3.org/2000/svg" xmlns:xlink="http://www.w3.org/1999/xlink">
<g id="graph0" class="graph" transform="scale(1 1) rotate(0) translate(4 201)">
<title>%3</title>
<polygon fill="white" stroke="transparent" points="-4,4 -4,-201 238,-201 238,4 -4,4"/>
<!-- @INIT_OPTG -->
<g id="node1" class="node">
<title>@INIT_OPTG</title>
<polygon fill="none" stroke="black" points="107,-125 0,-125 0,-89 107,-89 107,-125"/>
<text text-anchor="middle" x="53.5" y="-103.3" font-family="Times,serif" font-size="14.00">@INIT_OPTG</text>
</g>
<!-- @INIT_OPTG_ -->
<g id="node4" class="node">
<title>@INIT_OPTG_</title>
<polygon fill="none" stroke="black" points="97,-45.5 4,-45.5 4,-7.5 97,-7.5 97,-45.5"/>
<text text-anchor="middle" x="50.5" y="-30.3" font-family="Times,serif" font-size="14.00">@FORCES</text>
<text text-anchor="middle" x="50.5" y="-15.3" font-family="Times,serif" font-size="14.00">@COORDS</text>
</g>
<!-- @INIT_OPTG&#45;&gt;@INIT_OPTG_ -->
<g id="edge4" class="edge">
<title>@INIT_OPTG&#45;&gt;@INIT_OPTG_</title>
<path fill="none" stroke="black" d="M52.85,-88.97C52.48,-79.26 52,-66.86 51.58,-55.73"/>
<polygon fill="black" stroke="black" points="55.07,-55.45 51.19,-45.59 48.08,-55.72 55.07,-55.45"/>
</g>
<!-- @INIT_MD_ -->
<g id="node2" class="node">
<title>@INIT_MD_</title>
<polygon fill="none" stroke="black" points="234,-53 115,-53 115,0 234,0 234,-53"/>
<text text-anchor="middle" x="174.5" y="-37.8" font-family="Times,serif" font-size="14.00">@PRE&#45;FORCES</text>
<text text-anchor="middle" x="174.5" y="-22.8" font-family="Times,serif" font-size="14.00">@FORCES</text>
<text text-anchor="middle" x="174.5" y="-7.8" font-family="Times,serif" font-size="14.00">@COORDS</text>
</g>
<!-- @DEFAULT -->
<g id="node3" class="node">
<title>@DEFAULT</title>
<polygon fill="none" stroke="black" points="158,-197 65,-197 65,-161 158,-161 158,-197"/>
<text text-anchor="middle" x="111.5" y="-175.3" font-family="Times,serif" font-size="14.00">@DEFAULT</text>
</g>
<!-- @DEFAULT&#45;&gt;@INIT_OPTG -->
<g id="edge2" class="edge">
<title>@DEFAULT&#45;&gt;@INIT_OPTG</title>
<path fill="none" stroke="black" d="M97.16,-160.7C90.21,-152.3 81.73,-142.07 74.1,-132.86"/>
<polygon fill="black" stroke="black" points="76.75,-130.57 67.67,-125.1 71.36,-135.04 76.75,-130.57"/>
</g>
<!-- @INIT_MD -->
<g id="node5" class="node">
<title>@INIT_MD</title>
<polygon fill="none" stroke="black" points="217.5,-125 127.5,-125 127.5,-89 217.5,-89 217.5,-125"/>
<text text-anchor="middle" x="172.5" y="-103.3" font-family="Times,serif" font-size="14.00">@INIT_MD</text>
</g>
<!-- @DEFAULT&#45;&gt;@INIT_MD -->
<g id="edge1" class="edge">
<title>@DEFAULT&#45;&gt;@INIT_MD</title>
<path fill="none" stroke="black" d="M126.58,-160.7C133.89,-152.3 142.81,-142.07 150.84,-132.86"/>
<polygon fill="black" stroke="black" points="153.66,-134.94 157.59,-125.1 148.39,-130.34 153.66,-134.94"/>
</g>
<!-- @INIT_MD&#45;&gt;@INIT_MD_ -->
<g id="edge3" class="edge">
<title>@INIT_MD&#45;&gt;@INIT_MD_</title>
<path fill="none" stroke="black" d="M172.93,-88.97C173.13,-81.45 173.36,-72.31 173.59,-63.4"/>
<polygon fill="black" stroke="black" points="177.09,-63.24 173.85,-53.16 170.09,-63.06 177.09,-63.24"/>
</g>
</g>
</svg>
