<?xml version="1.0" encoding="UTF-8" standalone="no"?>
<!DOCTYPE svg PUBLIC "-//W3C//DTD SVG 1.1//EN"
 "http://www.w3.org/Graphics/SVG/1.1/DTD/svg11.dtd">
<!-- Generated by graphviz version 2.43.0 (0)
 -->
<!-- Title: %3 Pages: 1 -->
<svg width="250pt" height="211pt"
 viewBox="0.00 0.00 250.00 211.00" xmlns="http://www.w3.org/2000/svg" xmlns:xlink="http://www.w3.org/1999/xlink">
<g id="graph0" class="graph" transform="scale(1 1) rotate(0) translate(4 207)">
<title>%3</title>
<polygon fill="white" stroke="transparent" points="-4,4 -4,-207 246,-207 246,4 -4,4"/>
<!-- @DEFAULT -->
<g id="node1" class="node">
<title>@DEFAULT</title>
<polygon fill="none" stroke="black" points="175,-203 77,-203 77,-167 175,-167 175,-203"/>
<text text-anchor="middle" x="126" y="-181.3" font-family="Times,serif" font-size="14.00">@DEFAULT</text>
</g>
<!-- @INIT_MD -->
<g id="node2" class="node">
<title>@INIT_MD</title>
<polygon fill="none" stroke="black" points="113.5,-131 20.5,-131 20.5,-95 113.5,-95 113.5,-131"/>
<text text-anchor="middle" x="67" y="-109.3" font-family="Times,serif" font-size="14.00">@INIT_MD</text>
</g>
<!-- @DEFAULT&#45;&gt;@INIT_MD -->
<g id="edge1" class="edge">
<title>@DEFAULT&#45;&gt;@INIT_MD</title>
<path fill="none" stroke="black" d="M111.42,-166.7C104.34,-158.3 95.72,-148.07 87.95,-138.86"/>
<polygon fill="black" stroke="black" points="90.54,-136.49 81.42,-131.1 85.19,-141.01 90.54,-136.49"/>
</g>
<!-- @INIT_OPTG -->
<g id="node4" class="node">
<title>@INIT_OPTG</title>
<polygon fill="none" stroke="black" points="242,-131 134,-131 134,-95 242,-95 242,-131"/>
<text text-anchor="middle" x="188" y="-109.3" font-family="Times,serif" font-size="14.00">@INIT_OPTG</text>
</g>
<!-- @DEFAULT&#45;&gt;@INIT_OPTG -->
<g id="edge2" class="edge">
<title>@DEFAULT&#45;&gt;@INIT_OPTG</title>
<path fill="none" stroke="black" d="M141.33,-166.7C148.76,-158.3 157.82,-148.07 165.98,-138.86"/>
<polygon fill="black" stroke="black" points="168.84,-140.91 172.85,-131.1 163.6,-136.27 168.84,-140.91"/>
</g>
<!-- @INIT_MD_ -->
<g id="node3" class="node">
<title>@INIT_MD_</title>
<polygon fill="none" stroke="black" points="126,-59 0,-59 0,0 126,0 126,-59"/>
<text text-anchor="middle" x="63" y="-40.8" font-family="Times,serif" font-size="14.00">@PRE&#45;FORCES</text>
<text text-anchor="middle" x="63" y="-25.8" font-family="Times,serif" font-size="14.00">@FORCES</text>
<text text-anchor="middle" x="63" y="-10.8" font-family="Times,serif" font-size="14.00">@COORDS</text>
</g>
<!-- @INIT_MD&#45;&gt;@INIT_MD_ -->
<g id="edge3" class="edge">
<title>@INIT_MD&#45;&gt;@INIT_MD_</title>
<path fill="none" stroke="black" d="M66.15,-94.72C65.79,-87.33 65.35,-78.38 64.92,-69.54"/>
<polygon fill="black" stroke="black" points="68.4,-69.12 64.41,-59.31 61.41,-69.47 68.4,-69.12"/>
</g>
<!-- @INIT_OPTG_ -->
<g id="node5" class="node">
<title>@INIT_OPTG_</title>
<polygon fill="none" stroke="black" points="237.5,-51.5 144.5,-51.5 144.5,-7.5 237.5,-7.5 237.5,-51.5"/>
<text text-anchor="middle" x="191" y="-33.3" font-family="Times,serif" font-size="14.00">@FORCES</text>
<text text-anchor="middle" x="191" y="-18.3" font-family="Times,serif" font-size="14.00">@COORDS</text>
</g>
<!-- @INIT_OPTG&#45;&gt;@INIT_OPTG_ -->
<g id="edge4" class="edge">
<title>@INIT_OPTG&#45;&gt;@INIT_OPTG_</title>
<path fill="none" stroke="black" d="M188.64,-94.72C188.99,-85.16 189.44,-72.98 189.85,-61.81"/>
<polygon fill="black" stroke="black" points="193.36,-61.64 190.23,-51.52 186.36,-61.39 193.36,-61.64"/>
</g>
</g>
</svg>
