<?xml version="1.0" encoding="UTF-8" standalone="no"?>
<!DOCTYPE svg PUBLIC "-//W3C//DTD SVG 1.1//EN"
 "http://www.w3.org/Graphics/SVG/1.1/DTD/svg11.dtd">
<!-- Generated by graphviz version 2.42.3 (20191010.1750)
 -->
<!-- Title: %3 Pages: 1 -->
<svg width="207pt" height="205pt"
 viewBox="0.00 0.00 206.50 205.00" xmlns="http://www.w3.org/2000/svg" xmlns:xlink="http://www.w3.org/1999/xlink">
<g id="graph0" class="graph" transform="scale(1 1) rotate(0) translate(4 201)">
<title>%3</title>
<polygon fill="white" stroke="transparent" points="-4,4 -4,-201 202.5,-201 202.5,4 -4,4"/>
<!-- @DEFAULT -->
<g id="node1" class="node">
<title>@DEFAULT</title>
<polygon fill="none" stroke="black" points="139,-197 62,-197 62,-161 139,-161 139,-197"/>
<text text-anchor="middle" x="100.5" y="-175.3" font-family="Times,serif" font-size="14.00">@DEFAULT</text>
</g>
<!-- @INIT_MD -->
<g id="node2" class="node">
<title>@INIT_MD</title>
<polygon fill="none" stroke="black" points="88,-125 11,-125 11,-89 88,-89 88,-125"/>
<text text-anchor="middle" x="49.5" y="-103.3" font-family="Times,serif" font-size="14.00">@INIT_MD</text>
</g>
<!-- @DEFAULT&#45;&gt;@INIT_MD -->
<g id="edge1" class="edge">
<title>@DEFAULT&#45;&gt;@INIT_MD</title>
<path fill="none" stroke="black" d="M87.89,-160.7C81.9,-152.47 74.62,-142.48 68.02,-133.42"/>
<polygon fill="black" stroke="black" points="70.68,-131.13 61.96,-125.1 65.02,-135.25 70.68,-131.13"/>
</g>
<!-- @INIT_OPTG -->
<g id="node3" class="node">
<title>@INIT_OPTG</title>
<polygon fill="none" stroke="black" points="198.5,-125 106.5,-125 106.5,-89 198.5,-89 198.5,-125"/>
<text text-anchor="middle" x="152.5" y="-103.3" font-family="Times,serif" font-size="14.00">@INIT_OPTG</text>
</g>
<!-- @DEFAULT&#45;&gt;@INIT_OPTG -->
<g id="edge2" class="edge">
<title>@DEFAULT&#45;&gt;@INIT_OPTG</title>
<path fill="none" stroke="black" d="M113.35,-160.7C119.53,-152.39 127.04,-142.28 133.82,-133.14"/>
<polygon fill="black" stroke="black" points="136.64,-135.22 139.79,-125.1 131.02,-131.04 136.64,-135.22"/>
</g>
<!-- @INIT_MD_ -->
<g id="node4" class="node">
<title>@INIT_MD_</title>
<polygon fill="none" stroke="black" points="99,-53 0,-53 0,0 99,0 99,-53"/>
<text text-anchor="middle" x="49.5" y="-37.8" font-family="Times,serif" font-size="14.00">@PRE&#45;FORCES</text>
<text text-anchor="middle" x="49.5" y="-22.8" font-family="Times,serif" font-size="14.00">@FORCES</text>
<text text-anchor="middle" x="49.5" y="-7.8" font-family="Times,serif" font-size="14.00">@COORDS</text>
</g>
<!-- @INIT_MD&#45;&gt;@INIT_MD_ -->
<g id="edge3" class="edge">
<title>@INIT_MD&#45;&gt;@INIT_MD_</title>
<path fill="none" stroke="black" d="M49.5,-88.97C49.5,-81.45 49.5,-72.31 49.5,-63.4"/>
<polygon fill="black" stroke="black" points="53,-63.16 49.5,-53.16 46,-63.16 53,-63.16"/>
</g>
<!-- @INIT_OPTG_ -->
<g id="node5" class="node">
<title>@INIT_OPTG_</title>
<polygon fill="none" stroke="black" points="187,-45.5 118,-45.5 118,-7.5 187,-7.5 187,-45.5"/>
<text text-anchor="middle" x="152.5" y="-30.3" font-family="Times,serif" font-size="14.00">@FORCES</text>
<text text-anchor="middle" x="152.5" y="-15.3" font-family="Times,serif" font-size="14.00">@COORDS</text>
</g>
<!-- @INIT_OPTG&#45;&gt;@INIT_OPTG_ -->
<g id="edge4" class="edge">
<title>@INIT_OPTG&#45;&gt;@INIT_OPTG_</title>
<path fill="none" stroke="black" d="M152.5,-88.97C152.5,-79.26 152.5,-66.86 152.5,-55.73"/>
<polygon fill="black" stroke="black" points="156,-55.59 152.5,-45.59 149,-55.59 156,-55.59"/>
</g>
</g>
</svg>
