<?xml version="1.0" encoding="UTF-8" standalone="no"?>
<!DOCTYPE svg PUBLIC "-//W3C//DTD SVG 1.1//EN"
 "http://www.w3.org/Graphics/SVG/1.1/DTD/svg11.dtd">
<!-- Generated by graphviz version 2.42.3 (20191010.1750)
 -->
<!-- Title: %3 Pages: 1 -->
<svg width="229pt" height="202pt"
 viewBox="0.00 0.00 229.29 202.00" xmlns="http://www.w3.org/2000/svg" xmlns:xlink="http://www.w3.org/1999/xlink">
<g id="graph0" class="graph" transform="scale(1 1) rotate(0) translate(4 198)">
<title>%3</title>
<polygon fill="white" stroke="transparent" points="-4,4 -4,-198 225.29,-198 225.29,4 -4,4"/>
<!-- @DEFAULT -->
<g id="node1" class="node">
<title>@DEFAULT</title>
<polygon fill="none" stroke="black" points="159.42,-194 68.72,-194 68.72,-158 159.42,-158 159.42,-194"/>
<text text-anchor="middle" x="114.07" y="-171.8" font-family="Times,serif" font-size="14.00">@DEFAULT</text>
</g>
<!-- @INIT_MD -->
<g id="node2" class="node">
<title>@INIT_MD</title>
<polygon fill="none" stroke="black" points="102.51,-122 15.63,-122 15.63,-86 102.51,-86 102.51,-122"/>
<text text-anchor="middle" x="59.07" y="-99.8" font-family="Times,serif" font-size="14.00">@INIT_MD</text>
</g>
<!-- @DEFAULT&#45;&gt;@INIT_MD -->
<g id="edge1" class="edge">
<title>@DEFAULT&#45;&gt;@INIT_MD</title>
<path fill="none" stroke="black" d="M100.47,-157.7C93.95,-149.39 86,-139.28 78.82,-130.14"/>
<polygon fill="black" stroke="black" points="81.44,-127.81 72.51,-122.1 75.94,-132.13 81.44,-127.81"/>
</g>
<!-- @INIT_OPTG -->
<g id="node3" class="node">
<title>@INIT_OPTG</title>
<polygon fill="none" stroke="black" points="221.51,-122 120.63,-122 120.63,-86 221.51,-86 221.51,-122"/>
<text text-anchor="middle" x="171.07" y="-99.8" font-family="Times,serif" font-size="14.00">@INIT_OPTG</text>
</g>
<!-- @DEFAULT&#45;&gt;@INIT_OPTG --> <g id="edge2" class="edge">
<title>@DEFAULT&#45;&gt;@INIT_OPTG</title> <path fill="none"
stroke="black" d="M128.16,-157.7C134.99,-149.3 143.33,-139.07
150.83,-129.86"/> <polygon fill="black" stroke="black"
points="153.54,-132.07 157.14,-122.1 148.11,-127.65 153.54,-132.07"/>
</g>
<!-- @INIT_MD_ -->
<g id="node4" class="node">
<title>@INIT_MD_</title>
<polygon fill="none" stroke="black" points="112.21,-50 -0.07,-50 -0.07,0 112.21,0 112.21,-50"/>
<text text-anchor="middle" x="56.07" y="-34.8" font-family="Times,serif" font-size="14.00">@PRE&#45;FORCES</text>
<text text-anchor="middle" x="56.07" y="-20.8" font-family="Times,serif" font-size="14.00">@FORCES</text>
<text text-anchor="middle" x="56.07" y="-6.8" font-family="Times,serif" font-size="14.00">@COORDS</text>
</g>
<!-- @INIT_MD&#45;&gt;@INIT_MD_ -->
<g id="edge3" class="edge">
<title>@INIT_MD&#45;&gt;@INIT_MD_</title>
<path fill="none" stroke="black" d="M58.4,-85.91C58.11,-78.33 57.75,-69.13 57.4,-60.23"/>
<polygon fill="black" stroke="black" points="60.89,-59.91 57.01,-50.05 53.9,-60.18 60.89,-59.91"/>
</g>
<!-- @INIT_OPTG_ -->
<g id="node5" class="node">
<title>@INIT_OPTG_</title>
<polygon fill="none" stroke="black" points="215.76,-43 130.38,-43 130.38,-7 215.76,-7 215.76,-43"/>
<text text-anchor="middle" x="173.07" y="-27.8" font-family="Times,serif" font-size="14.00">@FORCES</text>
<text text-anchor="middle" x="173.07" y="-13.8" font-family="Times,serif" font-size="14.00">@COORDS</text>
</g>
<!-- @INIT_OPTG&#45;&gt;@INIT_OPTG_ -->
<g id="edge4" class="edge">
<title>@INIT_OPTG&#45;&gt;@INIT_OPTG_</title>
<path fill="none" stroke="black" d="M171.51,-85.91C171.76,-76.34 172.08,-64.18 172.36,-53.32"/>
<polygon fill="black" stroke="black" points="175.87,-53.13 172.63,-43.04 168.87,-52.95 175.87,-53.13"/>
</g>
</g>
</svg>
