<?xml version="1.0" encoding="UTF-8" standalone="no"?>
<!DOCTYPE svg PUBLIC "-//W3C//DTD SVG 1.1//EN"
 "http://www.w3.org/Graphics/SVG/1.1/DTD/svg11.dtd">
<!-- Generated by graphviz version 2.42.3 (20191010.1750)
 -->
<!-- Title: %3 Pages: 1 -->
<svg width="261pt" height="205pt"
 viewBox="0.00 0.00 261.00 205.00" xmlns="http://www.w3.org/2000/svg" xmlns:xlink="http://www.w3.org/1999/xlink">
<g id="graph0" class="graph" transform="scale(1 1) rotate(0) translate(4 201)">
<title>%3</title>
<polygon fill="white" stroke="transparent" points="-4,4 -4,-201 257,-201 257,4 -4,4"/>
<!-- @DEFAULT -->
<g id="node1" class="node">
<title>@DEFAULT</title>
<polygon fill="none" stroke="black" points="181.5,-197 80.5,-197 80.5,-161 181.5,-161 181.5,-197"/>
<text text-anchor="middle" x="131" y="-175.3" font-family="Times,serif" font-size="14.00">@DEFAULT</text>
</g>
<!-- @INIT_MD -->
<g id="node2" class="node">
<title>@INIT_MD</title>
<polygon fill="none" stroke="black" points="116,-125 18,-125 18,-89 116,-89 116,-125"/>
<text text-anchor="middle" x="67" y="-103.3" font-family="Times,serif" font-size="14.00">@INIT_MD</text>
</g>
<!-- @DEFAULT&#45;&gt;@INIT_MD -->
<g id="edge1" class="edge">
<title>@DEFAULT&#45;&gt;@INIT_MD</title>
<path fill="none" stroke="black" d="M115.18,-160.7C107.43,-152.22 97.96,-141.86 89.48,-132.58"/>
<polygon fill="black" stroke="black" points="91.97,-130.12 82.64,-125.1 86.8,-134.85 91.97,-130.12"/>
</g>
<!-- @INIT_OPTG -->
<g id="node3" class="node">
<title>@INIT_OPTG</title>
<polygon fill="none" stroke="black" points="253,-125 137,-125 137,-89 253,-89 253,-125"/>
<text text-anchor="middle" x="195" y="-103.3" font-family="Times,serif" font-size="14.00">@INIT_OPTG</text>
</g>
<!-- @DEFAULT&#45;&gt;@INIT_OPTG -->
<g id="edge2" class="edge">
<title>@DEFAULT&#45;&gt;@INIT_OPTG</title>
<path fill="none" stroke="black" d="M146.82,-160.7C154.57,-152.22 164.04,-141.86 172.52,-132.58"/>
<polygon fill="black" stroke="black" points="175.2,-134.85 179.36,-125.1 170.03,-130.12 175.2,-134.85"/>
</g>
<!-- @INIT_MD_ -->
<g id="node4" class="node">
<title>@INIT_MD_</title>
<polygon fill="none" stroke="black" points="130,-53 0,-53 0,0 130,0 130,-53"/>
<text text-anchor="middle" x="65" y="-37.8" font-family="Times,serif" font-size="14.00">@PRE&#45;FORCES</text>
<text text-anchor="middle" x="65" y="-22.8" font-family="Times,serif" font-size="14.00">@FORCES</text>
<text text-anchor="middle" x="65" y="-7.8" font-family="Times,serif" font-size="14.00">@COORDS</text>
</g>
<!-- @INIT_MD&#45;&gt;@INIT_MD_ -->
<g id="edge3" class="edge">
<title>@INIT_MD&#45;&gt;@INIT_MD_</title>
<path fill="none" stroke="black" d="M66.57,-88.97C66.37,-81.45 66.14,-72.31 65.91,-63.4"/>
<polygon fill="black" stroke="black" points="69.41,-63.06 65.65,-53.16 62.41,-63.24 69.41,-63.06"/>
</g>
<!-- @INIT_OPTG_ -->
<g id="node5" class="node">
<title>@INIT_OPTG_</title>
<polygon fill="none" stroke="black" points="246,-45.5 148,-45.5 148,-7.5 246,-7.5 246,-45.5"/>
<text text-anchor="middle" x="197" y="-30.3" font-family="Times,serif" font-size="14.00">@FORCES</text>
<text text-anchor="middle" x="197" y="-15.3" font-family="Times,serif" font-size="14.00">@COORDS</text>
</g>
<!-- @INIT_OPTG&#45;&gt;@INIT_OPTG_ -->
<g id="edge4" class="edge">
<title>@INIT_OPTG&#45;&gt;@INIT_OPTG_</title>
<path fill="none" stroke="black" d="M195.43,-88.97C195.68,-79.26 196,-66.86 196.28,-55.73"/>
<polygon fill="black" stroke="black" points="199.78,-55.68 196.54,-45.59 192.79,-55.5 199.78,-55.68"/>
</g>
</g>
</svg>
