<?xml version="1.0" encoding="UTF-8" standalone="no"?>
<!DOCTYPE svg PUBLIC "-//W3C//DTD SVG 1.1//EN"
 "http://www.w3.org/Graphics/SVG/1.1/DTD/svg11.dtd">
<!-- Generated by graphviz version 2.42.3 (20191010.1750)
 -->
<!-- Title: %3 Pages: 1 -->
<svg width="511pt" height="227pt"
 viewBox="0.00 0.00 510.62 226.95" xmlns="http://www.w3.org/2000/svg" xmlns:xlink="http://www.w3.org/1999/xlink">
<g id="graph0" class="graph" transform="scale(1 1) rotate(0) translate(4 222.95)">
<title>%3</title>
<polygon fill="white" stroke="transparent" points="-4,4 -4,-222.95 506.62,-222.95 506.62,4 -4,4"/>
<!-- @DEFAULT -->
<g id="node1" class="node">
<title>@DEFAULT</title>
<ellipse fill="none" stroke="black" cx="281.92" cy="-200.95" rx="65.79" ry="18"/>
<text text-anchor="middle" x="281.92" y="-197.25" font-family="Times,serif" font-size="14.00">@DEFAULT</text>
</g>
<!-- @INIT_MD -->
<g id="node2" class="node">
<title>@INIT_MD</title>
<ellipse fill="none" stroke="black" cx="113.92" cy="-128.95" rx="63.89" ry="18"/>
<text text-anchor="middle" x="113.92" y="-125.25" font-family="Times,serif" font-size="14.00">@INIT_MD</text>
</g>
<!-- @DEFAULT&#45;&gt;@INIT_MD -->
<g id="edge1" class="edge">
<title>@DEFAULT&#45;&gt;@INIT_MD</title>
<path fill="none" stroke="black" d="M247.52,-185.62C221.59,-174.81 185.83,-159.91 157.83,-148.25"/>
<polygon fill="black" stroke="black" points="158.86,-144.88 148.28,-144.27 156.17,-151.35 158.86,-144.88"/>
</g>
<!-- @INIT_OPTG -->
<g id="node3" class="node">
<title>@INIT_OPTG</title>
<ellipse fill="none" stroke="black" cx="281.92" cy="-128.95" rx="75.29" ry="18"/>
<text text-anchor="middle" x="281.92" y="-125.25" font-family="Times,serif" font-size="14.00">@INIT_OPTG</text>
</g>
<!-- @DEFAULT&#45;&gt;@INIT_OPTG -->
<g id="edge2" class="edge">
<title>@DEFAULT&#45;&gt;@INIT_OPTG</title>
<path fill="none" stroke="black" d="M281.92,-182.65C281.92,-174.94 281.92,-165.67 281.92,-157.07"/>
<polygon fill="black" stroke="black" points="285.42,-157.06 281.92,-147.06 278.42,-157.06 285.42,-157.06"/>
</g>
<!-- @INIT_MC -->
<g id="node4" class="node">
<title>@INIT_MC</title>
<ellipse fill="none" stroke="black" cx="438.92" cy="-128.95" rx="63.89" ry="18"/>
<text text-anchor="middle" x="438.92" y="-125.25" font-family="Times,serif" font-size="14.00">@INIT_MC</text>
</g>
<!-- @DEFAULT&#45;&gt;@INIT_MC -->
<g id="edge3" class="edge">
<title>@DEFAULT&#45;&gt;@INIT_MC</title>
<path fill="none" stroke="black" d="M314.84,-185.28C338.78,-174.6 371.39,-160.07 397.16,-148.57"/>
<polygon fill="black" stroke="black" points="398.62,-151.76 406.32,-144.49 395.77,-145.36 398.62,-151.76"/>
</g>
<!-- @INIT_MD_ -->
<g id="node5" class="node">
<title>@INIT_MD_</title>
<ellipse fill="none" stroke="black" cx="91.92" cy="-37.48" rx="91.85" ry="37.45"/>
<text text-anchor="middle" x="91.92" y="-48.78" font-family="Times,serif" font-size="14.00">@PRE&#45;FORCES</text>
<text text-anchor="middle" x="91.92" y="-33.78" font-family="Times,serif" font-size="14.00">@FORCES</text>
<text text-anchor="middle" x="91.92" y="-18.78" font-family="Times,serif" font-size="14.00">@COORDS</text>
</g>
<!-- @INIT_MD&#45;&gt;@INIT_MD_ -->
<g id="edge4" class="edge">
<title>@INIT_MD&#45;&gt;@INIT_MD_</title>
<path fill="none" stroke="black" d="M109.68,-110.7C107.85,-103.24 105.61,-94.12 103.34,-84.9"/>
<polygon fill="black" stroke="black" points="106.67,-83.81 100.89,-74.93 99.88,-85.48 106.67,-83.81"/>
</g>
<!-- @INIT_OPTG_ -->
<g id="node6" class="node">
<title>@INIT_OPTG_</title>
<ellipse fill="none" stroke="black" cx="293.92" cy="-37.48" rx="91.85" ry="37.45"/>
<text text-anchor="middle" x="293.92" y="-48.78" font-family="Times,serif" font-size="14.00">@PRE&#45;FORCES</text>
<text text-anchor="middle" x="293.92" y="-33.78" font-family="Times,serif" font-size="14.00">@FORCES</text>
<text text-anchor="middle" x="293.92" y="-18.78" font-family="Times,serif" font-size="14.00">@COORDS</text>
</g>
<!-- @INIT_OPTG&#45;&gt;@INIT_OPTG_ -->
<g id="edge5" class="edge">
<title>@INIT_OPTG&#45;&gt;@INIT_OPTG_</title>
<path fill="none" stroke="black" d="M284.24,-110.7C285.24,-103.24 286.46,-94.12 287.7,-84.9"/>
<polygon fill="black" stroke="black" points="291.17,-85.31 289.03,-74.93 284.24,-84.38 291.17,-85.31"/>
</g>
</g>
</svg>
